<svg
      xmlns="http://www.w3.org/2000/svg"
      width="800"
      height="800"
      class="icon"
      viewBox="0 0 1024 1024"
    >
      <path
        fill="#EAEAEA"
        d="M0 352v608a64 64 0 0 0 64 64h896a64 64 0 0 0 64-64V352H0z"
      />
      <path
        fill="#434854"
        d="M448 608h128v416H448zm192 0h128v416H640zm-384 0h128v416H256zm-192 0h128v416H64zm768 0h128v416H832z"
      />
      <path
        d="M448 608h128v32H448zm192 0h128v32H640zm-384 0h128v32H256zm-192 0h128v32H64zm768 0h128v32H832z"
      />
      <path d="M0 352h1024v32H0z" />
      <path
        fill="#EF4D4D"
        d="M512 0C370.624 0 256 96 256 256h512C768 96 653.376 0 512 0z"
      />
      <path
        fill="#469FCC"
        d="M128 416a64 64 0 0 0-64 64v64h128v-64a64 64 0 0 0-64-64zm192 0a64 64 0 0 0-64 64v64h128v-64a64 64 0 0 0-64-64zm192 0a64 64 0 0 0-64 64v64h128v-64a64 64 0 0 0-64-64zm192 0a64 64 0 0 0-64 64v64h128v-64a64 64 0 0 0-64-64zm192 0a64 64 0 0 0-64 64v64h128v-64a64 64 0 0 0-64-64z"
      />
      <path
        fill="#EF4D4D"
        d="M1024 352v-65.984A30.016 30.016 0 0 0 993.984 256H30.016A30.016 30.016 0 0 0 0 286.016V352h1024z"
      />
      <path
        d="M128 416a64 64 0 0 0-64 64v32a64 64 0 0 1 128 0v-32a64 64 0 0 0-64-64zm192 0a64 64 0 0 0-64 64v32a64 64 0 0 1 128 0v-32a64 64 0 0 0-64-64zm192 0a64 64 0 0 0-64 64v32a64 64 0 0 1 128 0v-32a64 64 0 0 0-64-64zm192 0a64 64 0 0 0-64 64v32a64 64 0 0 1 128 0v-32a64 64 0 0 0-64-64zm192 0a64 64 0 0 0-64 64v32a64 64 0 0 1 128 0v-32a64 64 0 0 0-64-64z"
      />
      <path
        d="M257.696 224A324.16 324.16 0 0 0 256 256h512c0-11.008-.672-21.632-1.696-32H257.696z"
      />
      <path
        fill="#3AAD73"
        d="M238.24 1024A126.656 126.656 0 0 0 256 960a128 128 0 0 0-256 0c0 23.424 6.752 45.088 17.76 64h220.48zM896 832a127.744 127.744 0 0 0-116.224 75.04A94.848 94.848 0 0 0 736 896a96 96 0 0 0-96 96c0 11.296 2.304 21.952 5.888 32h360.384A126.944 126.944 0 0 0 1024 960a128 128 0 0 0-128-128z"
      />
      <path
        d="M779.776 907.04A94.848 94.848 0 0 0 736 896a96 96 0 0 0-96 96c0 11.296 2.304 21.952 5.888 32H785.76A126.656 126.656 0 0 1 768 960c0-18.944 4.384-36.768 11.776-52.96z"
      />
    </svg>