<svg
  xmlns="http://www.w3.org/2000/svg"
  width="800"
  height="800"
  class="icon"
  viewBox="0 0 1024 1024"
>
  <path fill="#EAEAEA" d="M224 96h576v928H224z" />
  <path
    fill="#469FCC"
    d="M288 96h64v672h-64zm128 0h64v672h-64zm128 0h64v672h-64zm128 0h64v672h-64z"
  />
  <path
    fill="#434854"
    d="M288 832h64v192h-64zm128 0h64v192h-64zm128 0h64v192h-64zm128 0h64v192h-64z"
  />
  <path
    fill="#EF4D4D"
    d="M864 65.984C864 82.56 850.56 96 833.984 96H190.016A30.016 30.016 0 0 1 160 65.984V30.016C160 13.44 173.44 0 190.016 0h644C850.56 0 864 13.44 864 30.016v35.968z"
  />
  <path
    d="M224 96h64v32h-64zm128 0h64v32h-64zm128 0h64v32h-64zm128 0h64v32h-64zm128 0h64v32h-64zM288 96h64v32h-64zm128 0h64v32h-64zm128 0h64v32h-64zm128 0h64v32h-64z"
  />
  <path
    fill="#3AAD73"
    d="M238.24 1024A126.656 126.656 0 0 0 256 960a128 128 0 0 0-256 0c0 23.424 6.752 45.088 17.76 64h220.48zM896 832a127.744 127.744 0 0 0-116.224 75.04A94.848 94.848 0 0 0 736 896a96 96 0 0 0-96 96c0 11.296 2.304 21.952 5.888 32h360.384A126.944 126.944 0 0 0 1024 960a128 128 0 0 0-128-128z"
  />
  <path
    d="M779.776 907.04A94.848 94.848 0 0 0 736 896a96 96 0 0 0-96 96c0 11.296 2.304 21.952 5.888 32H785.76A126.656 126.656 0 0 1 768 960c0-18.944 4.384-36.768 11.776-52.96z"
  />
</svg>