<svg xmlns="http://www.w3.org/2000/svg" xml:space="preserve" viewBox="0 0 59 59"><path d="m29.5 10-22 15.5v31h43V25z" style="fill:#c77c38"/><path d="M51 39H8a2.5 2.5 0 1 1 0-5h43a2.5 2.5 0 1 1 0 5zM51 27.426H8a2.5 2.5 0 1 1 0-5h43a2.5 2.5 0 1 1 0 5zM8 54a2.5 2.5 0 1 0 0 5h15.5v-5H8zM51 54H35.5v5H51a2.5 2.5 0 1 0 0-5zM23.5 44H8a2.5 2.5 0 1 0 0 5h15.5v-5zM51 44H35.5v5H51a2.5 2.5 0 1 0 0-5z" style="fill:#ba631e"/><path d="M53.615 31.449 29.455 13.82 5.329 30.549a3 3 0 0 1-3.658-4.756L29.545 6.18l27.839 20.601a3 3 0 1 1-3.769 4.668z" style="fill:#6c4127"/><path d="M51.5 22.426V13h-6v4.986z" style="fill:#9e6c53"/><path d="M23.5 39h12v20h-12z" style="fill:#6c4127"/><circle cx="26.5" cy="49" r="1" style="fill:#c7cac7"/><path d="M24.5 24h10v10h-10z" style="fill:#c6e2f7;stroke:#6b5b4b;stroke-width:2;stroke-miterlimit:10"/><path d="M34.5 28h-4v-4h-2v4h-4v2h4v4h2v-4h4z" style="fill:#6b5b4b"/><path d="M46.5 11c-.26 0-.521-.11-.71-.29-.181-.19-.29-.45-.29-.71s.109-.521.29-.71c.37-.37 1.05-.37 1.42 0 .18.189.29.45.29.71s-.11.52-.29.71c-.19.18-.45.29-.71.29zM50.5 11a1 1 0 0 1-1-1V6a1 1 0 1 1 2 0v4a1 1 0 0 1-1 1zM50.5 4a1 1 0 0 1-1-1V1a1 1 0 1 1 2 0v2a1 1 0 0 1-1 1zM46.5 8a1 1 0 0 1-1-1V5a1 1 0 1 1 2 0v2a1 1 0 0 1-1 1zM46.5 3a1 1 0 0 1-1-1V1a1 1 0 1 1 2 0v1a1 1 0 0 1-1 1z" style="fill:#c7cac7"/></svg>