<svg xmlns="http://www.w3.org/2000/svg" data-name="Layer 1" viewBox="0 0 430.36 380"><g><path fill="#8c6239" d="M418.84 230.72h-4.96c0 20.21-15.44 38.1-39.19 49.15 3.01 2.91 5.62 6.22 7.74 9.86 26.03-11.51 44.13-29.84 47.85-50.92.76-4.32-4.64-8.09-11.45-8.09Z"/><path fill="#8c6239" d="M130.25 332.93h37.58a112.9 112.9 0 0 1-12.73-22.86h-36.95c-11.03 0-19.97 8.94-19.97 19.97v7.12c0 8.24 4.99 15.3 12.1 18.36v-2.62c0-11.03 8.94-19.97 19.97-19.97Z"/><path fill="#a67c52" d="M251.49 360.03v-7.12c0-11.03 8.94-19.97 19.97-19.97h30.44c-3-6.08-4.69-12.93-4.69-20.17 0-25.25 20.47-45.73 45.73-45.73 11.05 0 21.18 3.92 29.09 10.44.32-3.44.5-6.92.5-10.44 0-62.39-50.58-112.97-112.97-112.97s-112.97 50.58-112.97 112.97c0 15.24 3.04 29.77 8.51 43.04 3.36 8.15 7.65 15.8 12.73 22.86h40.82c11.03 0 19.97 8.94 19.97 19.97v7.12c0 5.4-2.15 10.29-5.64 13.89 11.47 3.92 23.76 6.09 36.57 6.09 2.82 0 5.62-.12 8.39-.33-9.35-1.66-16.46-9.82-16.46-19.64Z"/><path fill="#c69c6d" d="M228.63 352.9c0-11.03-8.94-19.97-19.97-19.97h-78.4c-11.03 0-19.97 8.94-19.97 19.97v7.12c0 11.03 8.94 19.97 19.97 19.97h78.4c5.63 0 10.71-2.34 14.34-6.09 3.48-3.6 5.64-8.49 5.64-13.89v-7.12Z"/><path fill="#c69c6d" d="M372.03 277.47a45.554 45.554 0 0 0-29.09-10.44c-25.25 0-45.73 20.47-45.73 45.73 0 7.24 1.69 14.09 4.69 20.17h-30.44c-11.03 0-19.97 8.94-19.97 19.97v7.12c0 9.83 7.11 17.98 16.46 19.64 1.14.2 2.31.33 3.51.33h78.4c11.03 0 19.97-8.94 19.97-19.97v-7.12c0-1.02-.1-2.02-.25-3 11.55-8.3 19.08-21.84 19.08-37.15 0-8.4-2.28-16.26-6.23-23.03a45.727 45.727 0 0 0-7.74-9.86 43.48 43.48 0 0 0-2.67-2.4Z"/></g><g><path fill="#a67c52" d="M244.41 80.55c5.47 4.73 10.54 9.9 15.15 15.48V65.41l-15.15 15.15Z"/><path fill="#c69c6d" d="m244.41 80.55 15.15-15.15v30.62c5.06 6.12 9.57 12.72 13.45 19.71v-82.8L233.7 72.24c3.72 2.59 7.29 5.36 10.71 8.31Z"/><path fill="#a67c52" d="M60.52 96.02c4.61-5.57 9.68-10.75 15.15-15.48L60.52 65.39v30.62Z"/><path fill="#c69c6d" d="M60.52 96.02V65.4l15.15 15.15c3.42-2.95 6.99-5.72 10.71-8.31L47.07 32.93v82.81c3.88-6.99 8.38-13.59 13.45-19.71Z"/><path fill="#c69c6d" d="M197.57 255.32c.19 0 .38.01.58.01 11.91 0 22.43-6.03 28.69-15.19-6.61 9.06-17.24 14.99-29.27 15.17Z"/><path fill="#c69c6d" d="M92.34 238.07c6.03 10.32 17.23 17.27 30.02 17.27.21 0 .41-.01.62-.02-12.91-.21-24.2-7.04-30.63-17.25Z"/><path fill="#c69c6d" d="M247.03 217.95c-2.02 0-3.67-1.64-3.67-3.67 0-2.02 1.64-3.67 3.67-3.67h38.03c.52-2.03 1-4.08 1.42-6.15l-37.97 4.9c-2.12.27-4.13-.84-4.48-2.49l-.27-1.26c-.35-1.65 1.08-3.21 3.2-3.48l40.84-5.27c.88-6.07 1.34-12.28 1.34-18.6 0-22.69-5.86-44.01-16.14-62.53-3.88-6.99-8.38-13.59-13.45-19.71-4.61-5.57-9.68-10.75-15.15-15.48-3.42-2.95-6.99-5.72-10.71-8.31-20.89-14.54-46.28-23.07-73.66-23.07s-52.77 8.53-73.66 23.07c-3.72 2.59-7.29 5.36-10.71 8.31a129.56 129.56 0 0 0-28.6 35.19c-10.28 18.53-16.14 39.85-16.14 62.53 0 6.22.45 12.34 1.3 18.33l42.74 5.52c2.12.27 3.56 1.83 3.2 3.48l-.27 1.26c-.35 1.65-2.36 2.77-4.48 2.49l-39.89-5.15c.44 2.15.93 4.28 1.47 6.39h39.9c2.02 0 3.67 1.64 3.67 3.67 0 2.02-1.64 3.67-3.67 3.67H37.13c.62 1.91 1.27 3.8 1.98 5.67l34.31-4.43c2.12-.27 4.13.84 4.48 2.49l.27 1.26c.35 1.65-1.08 3.21-3.2 3.48l-32.96 4.26c20.09 45.2 65.38 76.72 118.03 76.72s98.07-31.62 118.12-76.93l-31.19-4.03c-2.12-.27-3.56-1.83-3.2-3.48l.27-1.26c.35-1.65 2.36-2.77 4.48-2.49l32.53 4.2c.67-1.8 1.3-3.61 1.89-5.44h-35.9Zm-26.47-58.5c0 6.68-5.42 12.1-12.1 12.1s-12.1-5.42-12.1-12.1 5.42-12.1 12.1-12.1 12.1 5.42 12.1 12.1Zm-98.18 1.34c0 6.68-5.42 12.1-12.1 12.1s-12.1-5.42-12.1-12.1 5.42-12.1 12.1-12.1 12.1 5.42 12.1 12.1Zm75.77 100.86c-17.05 0-31.7-10.44-37.9-25.27-6.2 14.83-20.85 25.27-37.9 25.27-22.06 0-40.12-17.49-41.02-39.34-.04-.94.72-1.72 1.65-1.72h3.01c.28 0 .52.09.75.21-.05-.79-.08-1.58-.08-2.38 0-20.38 16.53-36.91 36.91-36.91 2.64 0 5.21.28 7.7.81v-51.66c0-15.3 12.4-27.7 27.7-27.7s27.7 12.4 27.7 27.7v52.33c3.28-.95 6.74-1.47 10.32-1.47 20.38 0 36.91 16.53 36.91 36.91 0 .91-.04 1.81-.11 2.71.43-.33.97-.54 1.55-.54h1.19c1.48 0 2.66 1.25 2.56 2.73-1.41 21.37-19.24 38.33-40.97 38.33Z"/><path fill="#c7b299" d="M87.65 222.18c.26 5.77 1.94 11.18 4.69 15.89 6.43 10.21 17.72 17.04 30.63 17.25 18.34-.32 33.27-14.92 34.09-33.14.04-.88.76-1.58 1.65-1.58h1.79c-14.61 0-26.45-11.84-26.45-26.45h52.9c0 14.61-11.84 26.45-26.45 26.45h1.23c.94 0 1.69.78 1.65 1.72v.06c.06.19.1.4.12.61 1.21 17.86 15.99 32.05 34.08 32.34 12.03-.18 22.66-6.11 29.27-15.17 3.39-4.96 5.54-10.83 5.97-17.17.05-.76.44-1.41 1-1.84.07-.9.11-1.8.11-2.71 0-20.38-16.53-36.91-36.91-36.91-3.58 0-7.05.52-10.32 1.47v-52.33c0-15.3-12.4-27.7-27.7-27.7s-27.7 12.4-27.7 27.7v51.66c-2.48-.53-5.06-.81-7.7-.81-20.38 0-36.91 16.53-36.91 36.91 0 .8.03 1.59.08 2.38.5.27.87.77.89 1.38Z"/><path d="M236.55 220.6h-1.19c-.58 0-1.12.21-1.55.54-.56.43-.95 1.08-1 1.84-.43 6.34-2.58 12.21-5.97 17.17-6.26 9.16-16.78 15.19-28.69 15.19-.19 0-.38-.01-.58-.01-18.09-.3-32.87-14.49-34.08-32.34-.01-.21-.06-.41-.12-.61v-.06c.04-.94-.72-1.72-1.65-1.72h-3.01c-.88 0-1.61.7-1.65 1.58-.82 18.22-15.74 32.82-34.09 33.14-.21 0-.41.02-.62.02-12.79 0-23.99-6.95-30.02-17.27a34.533 34.533 0 0 1-4.69-15.89 1.66 1.66 0 0 0-.89-1.38c-.23-.12-.48-.21-.75-.21h-3.01c-.94 0-1.69.78-1.65 1.72.9 21.84 18.96 39.34 41.02 39.34 17.05 0 31.7-10.45 37.9-25.27 6.2 14.83 20.85 25.27 37.9 25.27 21.72 0 39.56-16.96 40.97-38.33.1-1.48-1.08-2.73-2.56-2.73Z"/><path d="M186.94 194.15h-52.9c0 14.61 11.84 26.45 26.45 26.45s26.45-11.84 26.45-26.45Z"/><circle cx="208.45" cy="159.44" r="12.1"/><circle cx="110.28" cy="160.79" r="12.1"/><path d="M78.57 214.26c0-2.02-1.64-3.67-3.67-3.67H3.67c-2.02 0-3.67 1.64-3.67 3.67 0 2.02 1.64 3.67 3.67 3.67h71.24c2.02 0 3.67-1.64 3.67-3.67Z"/><path d="m78.18 222.92-.27-1.26c-.35-1.65-2.36-2.77-4.48-2.49l-34.31 4.43-35.52 4.59c-2.12.27-3.56 1.83-3.2 3.48l.27 1.26c.35 1.65 2.36 2.77 4.48 2.49l36.87-4.76 32.96-4.26c2.12-.27 3.56-1.83 3.2-3.48Z"/><path d="m77.91 206.86.27-1.26c.35-1.65-1.08-3.21-3.2-3.48l-42.74-5.52-27.09-3.5c-2.12-.27-4.13.84-4.48 2.49l-.27 1.26c-.35 1.65 1.08 3.21 3.2 3.48l29.94 3.87 39.89 5.15c2.12.27 4.13-.84 4.48-2.49Z"/><path d="M243.36 214.28c0 2.02 1.64 3.67 3.67 3.67h71.24c2.02 0 3.67-1.64 3.67-3.67 0-2.02-1.64-3.67-3.67-3.67h-71.24c-2.02 0-3.67 1.64-3.67 3.67Z"/><path d="m243.76 205.62.27 1.26c.35 1.65 2.36 2.77 4.48 2.49l37.97-4.9 31.85-4.11c2.12-.27 3.56-1.83 3.2-3.48l-.27-1.26c-.35-1.65-2.36-2.77-4.48-2.49l-28.98 3.74-40.84 5.27c-2.12.27-3.56 1.83-3.2 3.48Z"/><path d="m244.03 221.68-.27 1.26c-.35 1.65 1.08 3.21 3.2 3.48l31.19 4.03 38.63 4.99c2.12.27 4.13-.84 4.48-2.49l.27-1.26c.35-1.65-1.08-3.21-3.2-3.48l-37.3-4.82-32.53-4.2c-2.12-.27-4.13.84-4.48 2.49Z"/></g></svg>