<svg xmlns="http://www.w3.org/2000/svg" width="50" height="26" fill="none"><path fill="#D9D9D9" d="M23.338 13c0-2.951-1.23-5.782-3.418-7.87-2.188-2.086-5.156-3.259-8.251-3.259-3.095 0-6.063 1.173-8.251 3.26C1.229 7.218 0 10.049 0 13h23.338Z"/><path fill="#fff" d="M23.338 13c0-2.951-1.23-5.782-3.418-7.87-2.188-2.086-5.156-3.259-8.251-3.259-3.095 0-6.063 1.173-8.251 3.26C1.229 7.218 0 10.049 0 13h23.338Z"/><path fill="#fff" d="M29.208 13c0-3.345-.893-6.553-2.483-8.918-1.59-2.366-3.748-3.695-5.997-3.695-2.249 0-4.405 1.33-5.996 3.695C13.142 6.447 12.25 9.655 12.25 13h16.96Z"/><path fill="#F5FEFF" d="M41.892 13c0-2.305-1.115-4.516-3.1-6.145-1.984-1.63-4.675-2.546-7.482-2.546-2.806 0-5.498.916-7.482 2.546-1.985 1.63-3.1 3.84-3.1 6.145h21.164Z"/><path fill="#fff" d="M50 13c0-.71-.152-1.413-.446-2.069a5.397 5.397 0 0 0-1.27-1.753 5.911 5.911 0 0 0-1.9-1.172 6.282 6.282 0 0 0-2.24-.411c-.77 0-1.53.14-2.241.411a5.91 5.91 0 0 0-1.9 1.172 5.4 5.4 0 0 0-1.27 1.753A5.048 5.048 0 0 0 38.289 13H50Z"/></svg>