        <svg xmlns="http://www.w3.org/2000/svg" viewBox="0 0 100 100" class="cloud__one" width="22" height="58" fill="none" preserveAspectRatio="xMidYMid meet"><path fill="#D9D9D9" d="M79.107 39c0-9.127-4.167-17.88-11.585-24.333C60.104 8.214 50.044 4.588 39.554 4.588c-10.49 0-20.551 3.626-27.969 10.08C4.167 21.12 0 29.872 0 39h79.107Z"/><path fill="#fff" d="M79.107 39c0-9.127-4.167-17.88-11.585-24.333C60.104 8.214 50.044 4.588 39.554 4.588c-10.49 0-20.551 3.626-27.969 10.08C4.167 21.12 0 29.872 0 39h79.107Z"/><path fill="#fff" d="M99.007 39c0-10.343-3.028-20.263-8.419-27.577C85.198 4.109 77.886 0 70.263 0 62.64 0 55.328 4.109 49.938 11.423c-5.39 7.314-8.419 17.234-8.419 27.577h57.488Z"/><path fill="#F5FEFF" d="M142 39c0-7.127-3.779-13.963-10.506-19.003-6.727-5.04-15.85-7.87-25.363-7.87s-18.636 2.83-25.363 7.87C74.042 25.037 70.263 31.873 70.263 39H142Z"/></svg>
