<svg
          xmlns="http://www.w3.org/2000/svg"
          width="180"
          height="125"
          fill="none"
          viewBox="0 0 180 125"
        >
          <path
            fill="#4C2626"
            d="M18.062 124.161A1.5 1.5 0 0 1 19.408 122h23.184a1.5 1.5 0 0 1 1.346 2.161 1.5 1.5 0 0 1-1.346.839H19.408a1.5 1.5 0 0 1-1.346-.839Z"
          />
          <path
            fill="#4C2626"
            d="M46.877 119.082A1.5 1.5 0 0 1 48.259 117h19.482a1.5 1.5 0 0 1 0 3H48.259a1.5 1.5 0 0 1-1.382-.918Z"
          />
          <path
            fill="#4C2626"
            d="M106.877 119.082a1.5 1.5 0 0 1 1.382-2.082h19.482a1.5 1.5 0 0 1 0 3h-19.482a1.5 1.5 0 0 1-1.382-.918Z"
          />
          <path
            fill="#4C2626"
            d="M78.062 124.161A1.5 1.5 0 0 1 79.408 122h23.184a1.5 1.5 0 0 1 1.346 2.161 1.498 1.498 0 0 1-1.346.839H79.408a1.5 1.5 0 0 1-1.346-.839Z"
          />
          <path
            fill="#FAFAFA"
            d="M0 59c0-16.569 13.431-30 30-30h75c16.569 0 30 13.431 30 30v15c0 16.569-13.431 30-30 30H30C13.431 104 0 90.569 0 74V59Z"
          />
          <path fill="#FAFAFA" d="M19 86h24v37H19z" />
          <path fill="#FAFAFA" d="M19 86h24v37H19z" />
          <path fill="#FAFAFA" d="M19 86h24v37H19z" />
          <path fill="#FAFAFA" d="M19 86h24v37H19z" />
          <path fill="#FAFAFA" d="M48 86h20v31H48z" />
          <path fill="#FAFAFA" d="M48 86h20v31H48z" />
          <path fill="#FAFAFA" d="M48 86h20v31H48z" />
          <path fill="#FAFAFA" d="M48 86h20v31H48z" />
          <path fill="#FAFAFA" d="M79 86h24v37H79z" />
          <path fill="#FAFAFA" d="M79 86h24v37H79z" />
          <path fill="#FAFAFA" d="M79 86h24v37H79z" />
          <path fill="#FAFAFA" d="M79 86h24v37H79z" />
          <path fill="#FAFAFA" d="M108 86h20v31h-20z" />
          <path fill="#FAFAFA" d="M108 86h20v31h-20z" />
          <path fill="#FAFAFA" d="M108 86h20v31h-20z" />
          <path fill="#FAFAFA" d="M108 86h20v31h-20z" />
          <path
            fill="#000"
            d="M49 76.707c0 5.985-9.103 3.965-14.56 3.965-5.457 0-11.44-.359-11.44-6.343C23 68.344 28.983 59 34.44 59S49 70.723 49 76.707Z"
          />
          <path
            fill="#000"
            d="M121.5 65.904C121.5 77.225 105.993 82 95.5 82s-24-9.275-24-20.596c-5.5-24.5 13.507-24.5 24-24.5s26 17.678 26 29Z"
          />
          <ellipse cx="20" cy="45" fill="#000" rx="9" ry="7" />
          <ellipse cx="20" cy="45" fill="#000" rx="9" ry="7" />
          <path
            fill="#000"
            d="M56 29a9.552 9.552 0 0 1-.99 4.21c-.653 1.334-1.61 2.547-2.818 3.568a13.37 13.37 0 0 1-4.217 2.385A15.076 15.076 0 0 1 43 40c-1.707 0-3.398-.285-4.975-.837a13.37 13.37 0 0 1-4.217-2.385c-1.208-1.021-2.165-2.234-2.818-3.569A9.552 9.552 0 0 1 30 29h26Z"
          />
          <rect
            width="4"
            height="11"
            x="2"
            y="33.527"
            fill="#FAFAFA"
            rx="2"
            transform="rotate(-61.851 2 33.527)"
          />

          <g class="cow__head">
            
          <path
            fill="#F2A8A8"
            d="m120.636 6.643 16.296 4.692-9.762 10.956-6.534-15.648Z"
          />
          <path
            fill="#F2A8A8"
            d="m174.819 7.02-7.61 15.155-8.973-11.61 16.583-3.545Z"
          />
          <ellipse
            cx="148.118"
            cy="38.827"
            fill="#FAFAFA"
            rx="26.957"
            ry="30.808"
          />
          <ellipse
            cx="149.659"
            cy="55.771"
            fill="#FFC794"
            rx="28.497"
            ry="16.944"
          />
          <circle cx="138.106" cy="52.69" r="3.081" fill="#4C2626" />
          <circle cx="156.59" cy="52.69" r="3.081" fill="#4C2626" />
          <circle cx="155.05" cy="24.963" r="3.081" fill="#000" />
          <circle cx="139.646" cy="24.963" r="3.081" fill="#000" />
        </g>
        </svg>