 <svg
        xmlns="http://www.w3.org/2000/svg"
        xml:space="preserve"
        id="Layer_1"
        width="800"
        height="800"
        version="1.1"
        viewBox="0 0 64 64"
      >
        <style>
          .st0 {
            fill: #5c6373;
          }
          .st1 {
            fill: #7d828c;
          }
          .st2 {
            fill: #a4a5a6;
          }
        </style>
        <g id="Layer_17">
          <path
            d="M40 7h-2V5c0-.6-.4-1-1-1H23c-.6 0-1 .4-1 1v2h-2V5c0-1.7 1.3-3 3-3h14c1.7 0 3 1.3 3 3v2z"
            class="st0"
          />
          <path
            d="M15 25h-5c-1.7 0-3-1.3-3-3V10c0-1.7 1.3-3 3-3h8v2h-8c-.6 0-1 .4-1 1v12c0 .6.4 1 1 1h5v2z"
            class="st0"
          />
          <path
            d="M56 47h-2v-7c0-.6-.4-1-1-1h-8v-2h8c1.7 0 3 1.3 3 3v7z"
            class="st0"
          />
          <path d="M14 58V38C7.4 38 2 43.4 2 50v8h12z" class="st0" />
          <path d="M2 58h60v4H2z" class="st1" />
          <path d="M42 46h20v12H42z" class="st0" />
          <path d="M45 49h4v2h-4z" class="st2" />
          <path d="M55 49h4v2h-4z" class="st2" />
          <path d="M46 46V13c0-3.9-3.1-7-7-7s-7 3.1-7 7v33h14z" class="st2" />
          <path d="M28 46V13c0-3.9-3.1-7-7-7s-7 3.1-7 7v33h14z" class="st2" />
          <path d="M12 46h30v4H12z" class="st1" />
          <path d="M12 33h36v2H12z" class="st0" />
          <path d="M12 29h36v2H12z" class="st0" />
          <path d="M12 17h36v2H12z" class="st0" />
          <path d="M12 13h36v2H12z" class="st0" />
          <path d="M32 50h10v8H32z" class="st2" />
          <path d="M14 50h14v8H14z" class="st2" />
          <path
            d="M62 46h-4V28c0-1.1-.9-2-2-2H46v-4h10c3.3 0 6 2.7 6 6v18z"
            class="st2"
          />
        </g>
      </svg>