<svg xmlns="http://www.w3.org/2000/svg" width="800" height="800" fill="none" viewBox="0 0 24 24"><path fill="url(#a)" d="M15.743 10.508c.063-3.16-4.737-2.725-3.503-8.222 0 0-3.223 1.268-2.657 5.16.194 1.337-.275 2.337-.275 2.337-.474.097-1.211-.846-.954-2.303 0 0-1.691 1.263-1.691 2.886 0 1.623.783 3.343.783 3.343-1.949-.423-1.755-3.052-1.755-3.052s-1.234 1.652-1.234 4.766c0 2.423 2.731 6.291 7.137 6.291s7.943-3.417 7.943-6.457c0-1.331-.451-3.051-1.428-3.989 0 0 .13 2.658-1.183 2.532 0 0 1.085-3.469-.052-5.057 0 0-.548 1.714-1.131 1.765Z"/><path fill="url(#b)" d="M15.748 8.126c1.28-2.36-1.891-2.686-1.897-4.137 0 0-.56 1.497.777 2.52 1.092.828 1.12 1.617 1.12 1.617Z"/><path fill="url(#c)" d="M9.017 3.611c-.486.48.183 2.463-1.337 3.246 0 0-.514-2.177 1.337-3.246Z"/><path fill="url(#d)" d="M5.457 11.451c-.423.726-1 2.069-1 3.972 0 2.126 2.709 6.034 7.137 6.034 4.326 0 7.686-3.331 7.686-6.194 0-1.034-.286-2.354-.92-3.292-.046.589-.189 1.389-.629 1.806a1.01 1.01 0 0 1-.828.28l-.32-.029.097-.302c.011-.029.84-2.738.24-4.343-.24.588-.652 1.348-1.154 1.388l-.286.023.006-.286c.022-1.182-.703-1.81-1.543-2.537-1.2-1.04-2.554-2.217-2.057-5.205-.835.491-2.458 1.845-2.052 4.64.206 1.4-.28 2.44-.297 2.485l-.057.12-.126.023c-.24.046-.491-.051-.72-.268-.308-.303-.588-.875-.6-1.652-.468.48-1.114 1.309-1.114 2.252 0 1.548.754 3.217.76 3.234l.211.469-.503-.11c-1.314-.285-1.805-1.508-1.931-2.508Z" opacity=".5"/><path fill="url(#e)" d="M13.851 3.989c-.114.863.229 2.103.777 2.52.503.383 1.069 1.04 1.115 1.617.857-1.68-.349-2.303-1.04-2.549-.292-.103-.829-.703-.852-1.588Z"/><path fill="url(#f)" d="M11.217 3.743c-1.897 2.972.566 6.109-.703 7.989-1.268 1.88-2.554.143-2.64-1.035 0 0 .012 3.806 1.892 5.309 1.88 1.503-3.617 1.177-4.372-.657 0 0 0 6.108 6.2 6.108s7.235-5.685 7.235-5.685-2.258 1.925-3.76.423c0 0 1.125-1.972 1.411-3.995 0 0-.777.492-1.971.303 0 0 .662-2.84-.692-3.771-1.737-1.195-3.206-4.04-2.6-4.989Z"/><path fill="url(#g)" d="M11.691 7.24c-.994 1.308.943 4.668-1.091 6-1.126.737-1.771-.149-1.771-.149s.302 1.36 1.514 2.572c1.211 1.211-1.823 2.851-4.286.731 0 0 .846 5.091 6.577 4.234 6.326-.942 5.857-5.645 5.857-5.645s-1.714 2.697-4.154 1.405c0 0 1.537-2.143 1.537-3.371 0 0-1.04.617-2.228.023 0 0 .565-2.857-.109-3.286C11.92 8.72 11.691 7.24 11.691 7.24Z"/><path fill="url(#h)" d="M15.743 10.508c.063-3.16-4.737-2.725-3.503-8.222 0 0-3.223 1.268-2.657 5.16.194 1.337-.275 2.337-.275 2.337-.474.097-1.211-.846-.954-2.303 0 0-1.691 1.263-1.691 2.886 0 1.623.783 3.343.783 3.343-1.949-.423-1.755-3.052-1.755-3.052s-1.234 1.652-1.234 4.766c0 2.423 2.731 6.291 7.137 6.291s7.943-3.417 7.943-6.457c0-1.331-.451-3.051-1.428-3.989 0 0 .13 2.658-1.183 2.532 0 0 1.085-3.469-.052-5.057 0 0-.548 1.714-1.131 1.765Z" opacity=".5"/><path fill="url(#i)" d="M15.743 10.508c.063-3.16-4.737-2.725-3.503-8.222 0 0-3.223 1.268-2.657 5.16.194 1.337-.275 2.337-.275 2.337-.474.097-1.211-.846-.954-2.303 0 0-1.691 1.263-1.691 2.886 0 1.623.783 3.343.783 3.343-1.949-.423-1.755-3.052-1.755-3.052s-1.234 1.652-1.234 4.766c0 2.423 2.731 6.291 7.137 6.291s7.943-3.417 7.943-6.457c0-1.331-.451-3.051-1.428-3.989 0 0 .13 2.658-1.183 2.532 0 0 1.085-3.469-.052-5.057 0 0-.548 1.714-1.131 1.765Z" opacity=".5"/><path fill="url(#j)" d="M4.846 14.097c.131 3.229 2.788 7.097 6.943 7.097 4.154 0 6.228-4.383 6.36-6.948 0 0-.778 1.508-2.532 1.811-1.754.303.12-3.017-1.108-4.983 0 0-1.086 3.423-2.629 3.549-1.543.126-2.851-2.263-2.851-3.549 0 0-.949 2.315-.715 4.155.36 2.794-3.468-1.132-3.468-1.132Z"/><path fill="url(#k)" d="M15.743 10.508c.063-3.16-4.737-2.725-3.503-8.222 0 0-3.223 1.268-2.657 5.16.194 1.337-.275 2.337-.275 2.337-.474.097-1.211-.846-.954-2.303 0 0-1.691 1.263-1.691 2.886 0 1.623.783 3.343.783 3.343-1.949-.423-1.755-3.052-1.755-3.052s-1.234 1.652-1.234 4.766c0 2.423 2.731 6.291 7.137 6.291s7.943-3.417 7.943-6.457c0-1.331-.451-3.051-1.428-3.989 0 0 .13 2.658-1.183 2.532 0 0 1.085-3.469-.052-5.057 0 0-.548 1.714-1.131 1.765Z" opacity=".5"/><path fill="url(#l)" d="M15.748 8.126c1.28-2.36-1.891-2.686-1.897-4.137 0 0-.56 1.497.777 2.52 1.092.828 1.12 1.617 1.12 1.617Z" opacity=".5"/><path fill="url(#m)" d="M9.017 3.611c-.48.48-.171 1.995-1.337 3.246 0 0-.514-2.177 1.337-3.246Z"/><path fill="url(#n)" d="M9.017 3.611c-.486.48.183 2.463-1.337 3.246 0 0-.514-2.177 1.337-3.246Z" opacity=".5"/><path fill="url(#o)" d="M15.743 10.508c.063-3.16-4.737-2.725-3.503-8.222 0 0-3.223 1.268-2.657 5.16.194 1.337-.275 2.337-.275 2.337-.474.097-1.211-.846-.954-2.303 0 0-1.691 1.263-1.691 2.886 0 1.623.783 3.343.783 3.343-1.949-.423-1.755-3.052-1.755-3.052s-1.234 1.652-1.234 4.766c0 2.423 2.731 6.291 7.137 6.291s7.943-3.417 7.943-6.457c0-1.331-.451-3.051-1.428-3.989 0 0 .13 2.658-1.183 2.532 0 0 1.085-3.469-.052-5.057 0 0-.548 1.714-1.131 1.765Z" opacity=".5"/><path fill="url(#p)" d="M15.743 10.508c.063-3.16-4.737-2.725-3.503-8.222 0 0-3.223 1.268-2.657 5.16.194 1.337-.275 2.337-.275 2.337-.474.097-1.211-.846-.954-2.303 0 0-1.691 1.263-1.691 2.886 0 1.623.783 3.343.783 3.343-1.949-.423-1.755-3.052-1.755-3.052s-1.234 1.652-1.234 4.766c0 2.423 2.731 6.291 7.137 6.291s7.943-3.417 7.943-6.457c0-1.331-.451-3.051-1.428-3.989 0 0 .13 2.658-1.183 2.532 0 0 1.085-3.469-.052-5.057 0 0-.548 1.714-1.131 1.765Z" opacity=".25"/><path fill="url(#q)" d="M15.743 10.508c.063-3.16-4.737-2.725-3.503-8.222 0 0-3.223 1.268-2.657 5.16.194 1.337-.275 2.337-.275 2.337-.474.097-1.211-.846-.954-2.303 0 0-1.691 1.263-1.691 2.886 0 1.623.783 3.343.783 3.343-1.949-.423-1.755-3.052-1.755-3.052s-1.234 1.652-1.234 4.766c0 2.423 2.731 6.291 7.137 6.291s7.943-3.417 7.943-6.457c0-1.331-.451-3.051-1.428-3.989 0 0 .13 2.658-1.183 2.532 0 0 1.085-3.469-.052-5.057 0 0-.548 1.714-1.131 1.765Z" opacity=".25"/><path fill="url(#r)" d="M15.743 10.508c.063-3.16-4.737-2.725-3.503-8.222 0 0-3.223 1.268-2.657 5.16.194 1.337-.275 2.337-.275 2.337-.474.097-1.211-.846-.954-2.303 0 0-1.691 1.263-1.691 2.886 0 1.623.783 3.343.783 3.343-1.949-.423-1.755-3.052-1.755-3.052s-1.234 1.652-1.234 4.766c0 2.423 2.731 6.291 7.137 6.291s7.943-3.417 7.943-6.457c0-1.331-.451-3.051-1.428-3.989 0 0 .13 2.658-1.183 2.532 0 0 1.085-3.469-.052-5.057 0 0-.548 1.714-1.131 1.765Z" opacity=".25"/><defs><radialGradient id="e" cx="0" cy="0" r="1" gradientTransform="translate(16.147 .136) scale(10.2006)" gradientUnits="userSpaceOnUse"><stop offset=".001" stop-color="#FFED1C" stop-opacity=".6"/><stop offset=".948" stop-color="#FFED1C" stop-opacity=".026"/><stop offset=".991" stop-color="#FFED1C" stop-opacity="0"/></radialGradient><radialGradient id="h" cx="0" cy="0" r="1" gradientTransform="matrix(7.89073 0 0 6.40569 11.897 17.174)" gradientUnits="userSpaceOnUse"><stop offset=".001" stop-color="#FFBC47"/><stop offset=".294" stop-color="#FFBF4B" stop-opacity=".707"/><stop offset=".562" stop-color="#FEC656" stop-opacity=".438"/><stop offset=".82" stop-color="#FCD368" stop-opacity=".18"/><stop offset="1" stop-color="#FBE07A" stop-opacity="0"/></radialGradient><radialGradient id="i" cx="0" cy="0" r="1" gradientTransform="matrix(7.64758 0 0 6.2083 11.897 16.85)" gradientUnits="userSpaceOnUse"><stop offset=".001" stop-color="#fff"/><stop offset="1" stop-color="#fff" stop-opacity="0"/></radialGradient><radialGradient id="j" cx="0" cy="0" r="1" gradientTransform="matrix(9.39451 0 0 10.938 8.544 18.26)" gradientUnits="userSpaceOnUse"><stop offset=".001" stop-color="#FFED1C" stop-opacity=".6"/><stop offset=".948" stop-color="#FFED1C" stop-opacity=".026"/><stop offset=".991" stop-color="#FFED1C" stop-opacity="0"/></radialGradient><radialGradient id="k" cx="0" cy="0" r="1" gradientTransform="rotate(92.888 -2.061 14.08) scale(2.96912 2.4102)" gradientUnits="userSpaceOnUse"><stop offset=".001" stop-color="#fff"/><stop offset="1" stop-color="#fff" stop-opacity="0"/></radialGradient><radialGradient id="l" cx="0" cy="0" r="1" gradientTransform="translate(13.539 3.983) scale(3.37018)" gradientUnits="userSpaceOnUse"><stop offset=".001" stop-color="#FFED1C"/><stop offset=".2" stop-color="#FFEE2B" stop-opacity=".801"/><stop offset=".584" stop-color="#FFF254" stop-opacity=".417"/><stop offset="1" stop-color="#FFF686" stop-opacity="0"/></radialGradient><radialGradient id="m" cx="0" cy="0" r="1" gradientTransform="rotate(-56.412 9.216 -4.639) scale(2.72992 .61998)" gradientUnits="userSpaceOnUse"><stop offset=".001" stop-color="#FFED1C" stop-opacity=".6"/><stop offset=".948" stop-color="#FFED1C" stop-opacity=".026"/><stop offset=".991" stop-color="#FFED1C" stop-opacity="0"/></radialGradient><radialGradient id="n" cx="0" cy="0" r="1" gradientTransform="matrix(-.21623 2.44342 -.98316 -.087 8.522 3.464)" gradientUnits="userSpaceOnUse"><stop offset=".001" stop-color="#FFED1C"/><stop offset=".2" stop-color="#FFEE2B" stop-opacity=".801"/><stop offset=".584" stop-color="#FFF254" stop-opacity=".417"/><stop offset="1" stop-color="#FFF686" stop-opacity="0"/></radialGradient><radialGradient id="o" cx="0" cy="0" r="1" gradientTransform="translate(12.79 3.55) scale(10.516)" gradientUnits="userSpaceOnUse"><stop offset=".001" stop-color="#FF4C00"/><stop offset=".135" stop-color="#FF5B0C" stop-opacity=".866"/><stop offset=".394" stop-color="#FF842C" stop-opacity=".607"/><stop offset=".749" stop-color="#FFC45F" stop-opacity=".251"/><stop offset="1" stop-color="#FFF686" stop-opacity="0"/></radialGradient><radialGradient id="p" cx="0" cy="0" r="1" gradientTransform="translate(17.573 12.07) scale(5.58172)" gradientUnits="userSpaceOnUse"><stop offset=".001" stop-color="#FFED1C"/><stop offset=".2" stop-color="#FFEE2B" stop-opacity=".801"/><stop offset=".584" stop-color="#FFF254" stop-opacity=".417"/><stop offset="1" stop-color="#FFF686" stop-opacity="0"/></radialGradient><radialGradient id="q" cx="0" cy="0" r="1" gradientTransform="translate(6.147 14.06) scale(5.9494)" gradientUnits="userSpaceOnUse"><stop offset=".001" stop-color="#FFED1C"/><stop offset=".2" stop-color="#FFEE2B" stop-opacity=".801"/><stop offset=".584" stop-color="#FFF254" stop-opacity=".417"/><stop offset="1" stop-color="#FFF686" stop-opacity="0"/></radialGradient><radialGradient id="r" cx="0" cy="0" r="1" gradientTransform="rotate(86.11 -.976 12.748) scale(10.1909 6.19501)" gradientUnits="userSpaceOnUse"><stop stop-color="#FF4C00" stop-opacity="0"/><stop offset=".987" stop-color="#FF4C00" stop-opacity=".989"/><stop offset=".999" stop-color="#FF4C00"/></radialGradient><linearGradient id="a" x1="12.963" x2="9.46" y1="22.251" y2="-3.135" gradientUnits="userSpaceOnUse"><stop stop-color="red"/><stop offset=".232" stop-color="#FF1500"/><stop offset=".737" stop-color="#FF3D00"/><stop offset=".999" stop-color="#FF4C00"/></linearGradient><linearGradient id="b" x1="17.068" x2="13.565" y1="21.685" y2="-3.701" gradientUnits="userSpaceOnUse"><stop stop-color="red"/><stop offset=".232" stop-color="#FF1500"/><stop offset=".737" stop-color="#FF3D00"/><stop offset=".999" stop-color="#FF4C00"/></linearGradient><linearGradient id="c" x1="10.735" x2="7.232" y1="22.559" y2="-2.827" gradientUnits="userSpaceOnUse"><stop stop-color="red"/><stop offset=".232" stop-color="#FF1500"/><stop offset=".737" stop-color="#FF3D00"/><stop offset=".999" stop-color="#FF4C00"/></linearGradient><linearGradient id="d" x1="12.869" x2="5.214" y1="17.927" y2="-3.934" gradientUnits="userSpaceOnUse"><stop stop-color="#FF8000"/><stop offset=".639" stop-color="#FF5B00"/><stop offset=".999" stop-color="#FF4C00"/></linearGradient><linearGradient id="f" x1="9.897" x2="12.665" y1="3.339" y2="18.865" gradientUnits="userSpaceOnUse"><stop stop-color="#FF8000"/><stop offset=".023" stop-color="#FE7F02" stop-opacity=".977"/><stop offset=".666" stop-color="#ED582A" stop-opacity=".334"/><stop offset="1" stop-color="#E74939" stop-opacity="0"/></linearGradient><linearGradient id="g" x1="12.046" x2="12.644" y1="20.116" y2="9.214" gradientUnits="userSpaceOnUse"><stop stop-color="#FFBC47"/><stop offset=".187" stop-color="#FFB137" stop-opacity=".813"/><stop offset=".722" stop-color="#FF940F" stop-opacity=".278"/><stop offset="1" stop-color="#FF8900" stop-opacity="0"/></linearGradient></defs></svg>