<svg xmlns="http://www.w3.org/2000/svg" data-name="Layer 1" viewBox="0 0 325.17 304.13"><g><path fill="#603813" d="M192.34 263.7v-61.66c0-12.24 9.92-22.17 22.17-22.17 7.26 0 13.69 3.51 17.73 8.91.87-1.16 1.86-2.23 2.93-3.2-6.64-44.45-45.74-78.59-93-78.59s-84.89 32.86-92.59 76.08a22.35 22.35 0 0 1 6.49 5.83c4.04-5.4 10.47-8.91 17.73-8.91 12.24 0 22.17 9.92 22.17 22.17v61.66c9.07 3.69 15.2 10.71 15.2 18.78 0 1.07-.11 2.13-.32 3.16 9.8 3.39 20.34 5.24 31.32 5.24 12.41 0 24.25-2.36 35.09-6.63-.07-.62-.12-1.25-.12-1.89 0-8.06 6.13-15.09 15.2-18.78Z"/><path fill="#42210b" d="M51.64 282.6c0-.13.01-.25.01-.37 0-.09-.01-.17-.01-.26v-79.8c0-4.98 1.66-9.56 4.43-13.26a22.478 22.478 0 0 0-6.49-5.83A21.973 21.973 0 0 0 38.34 180c-12.24 0-22.17 9.92-22.17 22.17v79.8c0 12.24 9.92 22.17 22.17 22.17 7.26 0 13.69-3.51 17.73-8.91a21.977 21.977 0 0 1-4.03-9.11c-.26-1.15-.4-2.32-.4-3.52Z"/><path fill="#c69c6d" d="M95.97 263.82v18.14c0 11.18-8.29 20.41-19.05 21.92 1.46.16 2.96.24 4.49.24 14.95 0 27.33-7.98 29.44-18.37.21-1.03.32-2.09.32-3.16 0-8.06-6.13-15.09-15.2-18.78Z"/><path fill="#c69c6d" d="M52.04 286.12c-.24-1.26-.37-2.56-.39-3.89 0 .12-.01.25-.01.37 0 1.2.14 2.37.4 3.52Z"/><path fill="#754c24" d="M95.97 281.97v-79.8c0-12.24-9.92-22.17-22.17-22.17-7.26 0-13.69 3.51-17.73 8.91-2.77 3.7-4.43 8.28-4.43 13.26v79.8c0 .09.01.17.01.26.02 1.33.15 2.63.39 3.89.64 3.37 2.05 6.46 4.03 9.11 4.04 5.4 10.47 8.91 17.73 8.91 1.06 0 2.09-.1 3.11-.24 10.76-1.52 19.05-10.74 19.05-21.92Z"/><path fill="#42210b" d="M249.98 179.88c-5.7 0-10.88 2.17-14.8 5.71-1.08.97-2.06 2.04-2.93 3.2 2.77 3.7 4.43 8.28 4.43 13.26v79.8c0 .09-.01.17-.01.26 0 .13.01.25.01.37 0 1.2-.14 2.37-.4 3.52-.64 3.37-2.05 6.46-4.03 9.11 4.04 5.4 10.47 8.91 17.73 8.91 12.24 0 22.17-9.92 22.17-22.17v-79.8c0-12.24-9.92-22.17-22.17-22.17Z"/><path fill="#c69c6d" d="M192.34 281.85v-18.14c-9.07 3.69-15.2 10.71-15.2 18.78 0 .64.05 1.27.12 1.89 1.32 11.01 14.09 19.64 29.65 19.64 1.53 0 3.02-.08 4.49-.24-10.76-1.52-19.05-10.74-19.05-21.92Z"/><path fill="#c69c6d" d="M236.68 282.48c0-.13-.01-.25-.01-.37-.02 1.33-.15 2.63-.39 3.89.26-1.15.4-2.32.4-3.52Z"/><path fill="#754c24" d="M236.66 282.11c0-.09.01-.17.01-.26v-79.8c0-4.98-1.66-9.56-4.43-13.26-4.04-5.4-10.47-8.91-17.73-8.91-12.24 0-22.17 9.92-22.17 22.17v79.8c0 11.18 8.29 20.41 19.05 21.92 1.02.14 2.05.24 3.11.24 7.26 0 13.69-3.51 17.73-8.91 1.98-2.64 3.39-5.73 4.03-9.11.24-1.26.37-2.56.39-3.89Z"/></g><g><path fill="#754c24" d="M86.51 102.2A38.966 38.966 0 0 1 73.7 82.8c-4.21 9.88-14.01 16.8-25.43 16.8-15.26 0-27.63-12.37-27.63-27.63s12.37-27.63 27.63-27.63c11.43 0 21.24 6.94 25.44 16.84 2.21-7.67 6.7-14.36 12.71-19.3a38.836 38.836 0 0 1 24.76-8.87c12.99 0 24.49 6.35 31.57 16.12C149.89 39.99 161 34.1 173.5 34.1c5.77 0 11.25 1.26 16.18 3.51 2.98-4.71 6.77-8.86 11.15-12.29C186.31 9.75 165.64 0 142.67 0c-26.76 0-50.42 13.24-64.83 33.51-8.15-6.21-18.31-9.92-29.35-9.92C21.71 23.59 0 45.3 0 72.09s21.71 48.5 48.5 48.5c8.31 0 16.11-2.11 22.94-5.79 5.27 10.62 12.85 19.88 22.07 27.15a48.424 48.424 0 0 1 11.96-31.37 38.878 38.878 0 0 1-18.97-8.38Z"/><path fill="#754c24" d="M179.15 111.68c6.89 8.39 11.03 19.14 11.03 30.87 0 .24-.01.48-.02.72a79.746 79.746 0 0 0 26.03-33.47 48.349 48.349 0 0 1-15.82-8.44c-5.71 5.42-13.05 9.14-21.22 10.33Z"/><path fill="#42210b" d="M48.27 44.33c-15.26 0-27.63 12.37-27.63 27.63s12.37 27.63 27.63 27.63c11.42 0 21.21-6.92 25.43-16.8-.99-3.43-1.52-7.05-1.52-10.8s.54-7.39 1.54-10.83c-4.2-9.9-14.01-16.84-25.44-16.84Z"/><path fill="#754c24" d="M230.67 15c-11.27 0-21.62 3.86-29.85 10.31a48.932 48.932 0 0 0-11.15 12.29 39.108 39.108 0 0 1 16.02 13.48c4.52-9.09 13.9-15.34 24.75-15.34 15.26 0 27.63 12.37 27.63 27.63S245.7 91 230.44 91c-7.5 0-14.29-2.99-19.27-7.83a38.991 38.991 0 0 1-10.81 18.18A48.349 48.349 0 0 0 230.67 112c26.79 0 48.5-21.71 48.5-48.5S257.46 15 230.67 15Z"/><path fill="#42210b" d="M211.17 83.17A27.513 27.513 0 0 0 230.44 91c15.26 0 27.63-12.37 27.63-27.63s-12.37-27.63-27.63-27.63c-10.84 0-20.22 6.25-24.75 15.34a38.8 38.8 0 0 1 6.8 22.01c0 3.49-.47 6.87-1.33 10.08Z"/><path fill="#c69c6d" d="M179.15 111.68c8.17-1.18 15.51-4.9 21.22-10.33a38.942 38.942 0 0 0 10.81-18.18 38.97 38.97 0 0 0 1.33-10.08c0-8.17-2.51-15.74-6.8-22.01a39.184 39.184 0 0 0-16.02-13.48 38.843 38.843 0 0 0-16.18-3.51c-12.5 0-23.61 5.89-30.75 15.03C135.67 39.36 124.17 33 111.19 33c-9.4 0-18.02 3.33-24.76 8.87-6 4.94-10.49 11.64-12.71 19.3-.99 3.44-1.54 7.07-1.54 10.83s.53 7.37 1.52 10.8c2.22 7.72 6.76 14.45 12.81 19.4a38.746 38.746 0 0 0 18.97 8.38 48.424 48.424 0 0 0-11.96 31.37c0 .2-.01.39-.01.59 0 26.81 21.64 48.54 48.34 48.54s47.93-21.35 48.32-47.82c0-.24.02-.48.02-.72a48.49 48.49 0 0 0-11.03-30.87Zm-5.65-60.59c3.5 0 6.81.82 9.74 2.27 7.26 3.59 12.26 11.07 12.26 19.73 0 6.03-2.43 11.49-6.36 15.47-3.99 4.03-9.52 6.53-15.64 6.53-12.15 0-22-9.85-22-22s9.85-22 22-22ZM94.77 86.66c-3.48-3.89-5.6-9.02-5.6-14.65s2.1-10.72 5.55-14.6c4.03-4.53 9.9-7.4 16.45-7.4 12.15 0 22 9.85 22 22s-9.85 22-22 22a21.91 21.91 0 0 1-16.4-7.35Zm47.02 87.93c-7.07 0-12.79-2.82-12.79-6.29s5.73-6.29 12.79-6.29 12.79 2.82 12.79 6.29-5.73 6.29-12.79 6.29Z"/><path fill="#fff" d="M133.17 72c0-12.15-9.85-22-22-22-6.54 0-12.42 2.86-16.45 7.4-3.45 3.89-5.55 9-5.55 14.6s2.12 10.76 5.6 14.65c4.03 4.51 9.88 7.35 16.4 7.35 12.15 0 22-9.85 22-22Zm-31.67-.25c0-5.16 4.18-9.34 9.34-9.34s9.34 4.18 9.34 9.34-4.18 9.34-9.34 9.34-9.34-4.18-9.34-9.34Z"/><circle cx="110.84" cy="71.75" r="9.34"/><path fill="#fff" d="M173.5 95.09c6.12 0 11.65-2.5 15.64-6.53a21.93 21.93 0 0 0 6.36-15.47c0-8.65-5-16.13-12.26-19.73a21.943 21.943 0 0 0-9.74-2.27c-12.15 0-22 9.85-22 22s9.85 22 22 22Zm-.34-31.59c5.16 0 9.34 4.18 9.34 9.34s-4.18 9.34-9.34 9.34-9.34-4.18-9.34-9.34 4.18-9.34 9.34-9.34Z"/><circle cx="173.16" cy="72.84" r="9.34"/><ellipse cx="141.79" cy="168.29" fill="#603813" rx="12.79" ry="6.29"/></g><path fill="#42210b" d="M248.17 210.46v-1.03c0-4.7 3.4-8.77 8.06-9.46 25.32-3.77 45.38-25.02 48.83-51.76.61-4.72 4.72-8.21 9.49-8.21h1.03c5.72 0 10.25 5 9.53 10.67-4.55 35.72-31.62 64.14-65.83 69.26-5.83.87-11.1-3.58-11.1-9.47Z"/></svg>