<svg xmlns="http://www.w3.org/2000/svg" xml:space="preserve" width="800" height="800" style="fill-rule:evenodd;clip-rule:evenodd;stroke-linejoin:round;stroke-miterlimit:2" viewBox="-40 0 220 220"><g><g><path d="m1388.14 169.33-1.03 5.519 1.43 7.046 2.57-1.444-.74-6.06.17 1.837 2.39-.594-2.02-4.489-2.77-1.815Z" style="fill:#e1c5b5;fill-rule:nonzero" transform="matrix(1.27 0 0 1.27 -1711.36 -100.04)"/></g><g><path d="m1395.88 139.75 4.79-1.888 10.43-.406-1.98-8.332-12.69-.233-.55 10.859Z" style="fill:#543e36;fill-rule:nonzero" transform="matrix(1.27 0 0 1.27 -1711.36 -100.04)"/></g><g><path d="m1409.59 233.034.85 6.195-6.04-.155-.46-6.658 5.65.618Z" style="fill:#2a2b2a;fill-rule:nonzero" transform="matrix(1.27 0 0 1.27 -1711.36 -100.04)"/></g><g><path d="m1398.56 249.525.69 1.975h4.76l1.22-9.001-5.43-1.141-1.24 8.167Z" style="fill:#2a2b2a;fill-rule:nonzero" transform="matrix(1.27 0 0 1.27 -1711.36 -100.04)"/></g><g><path d="m1396.81 137.805 2.56-1.703 1.86-5.265 4.29 1.223 1.36 3.346 2.94 1.47-1.86 6.116-8.75.233-2.4-5.42Z" style="fill:#ceab97;fill-rule:nonzero" transform="matrix(1.27 0 0 1.27 -1711.36 -100.04)"/></g><g><path d="M1401.13 134.589h3.87l4.16-5.351-.74-11.446-7.43-1.24-4.61 1.835.15 10.851 4.6 5.351Z" style="fill:#e1c5b5;fill-rule:nonzero" transform="matrix(1.27 0 0 1.27 -1711.36 -100.04)"/></g><g><path d="m1395.23 145.798-4.27 25.759-3.05-1.145 3.81-29.065 3.51 4.451Z" style="fill:#e1c5b5;fill-rule:nonzero" transform="matrix(1.27 0 0 1.27 -1711.36 -100.04)"/></g><g><path d="m1402.25 113.167 8.58 2.708 4.71 23.208-4.85 5.167.06-5.574-.31-1.646-1.49-7.529-1.87-9.501-5.1-2.083.27-4.75Z" style="fill:#543e36;fill-rule:nonzero" transform="matrix(1.27 0 0 1.27 -1711.36 -100.04)"/></g><g><path d="m1402.07 117.917-5.02 1.887-.59 22.196-4.25-.749.83-23.918 9.34-4.25-.31 4.834Z" style="fill:#543e36;fill-rule:nonzero" transform="matrix(1.27 0 0 1.27 -1711.36 -100.04)"/></g><g><path d="m1404.09 195.563.93 46.917-5.19-1.083-4.56-45.989" style="fill:#e1c5b5;fill-rule:nonzero" transform="matrix(1.27 0 0 1.27 -1711.36 -100.04)"/></g><g><path d="m1403.94 178.994.15 19.819.74 33.835 4.76.386 2.32-34.433-7.97-19.607Z" style="fill:#ceab97;fill-rule:nonzero" transform="matrix(1.27 0 0 1.27 -1711.36 -100.04)"/></g><g><path d="m1415.55 139.198-5.7-2.352-2.27 5.603-8.06.233-2.71-4.994-5.19 3.563 3.49 4.605.43 14.394-7.2 40.15 29.84.233-6.89-39.883 1.32-17.371 2.94-4.181Z" style="fill:#376388;fill-rule:nonzero" transform="matrix(1.27 0 0 1.27 -1711.36 -100.04)"/></g><g><path d="m1412.65 143.344 1.21 27.267 3.29-.238-1.56-31.123-2.94 4.094Z" style="fill:#e1c5b5;fill-rule:nonzero" transform="matrix(1.27 0 0 1.27 -1711.36 -100.04)"/></g><g><path d="m1417.16 170.277.29 4.335-2.92 6.144-2.41-1.423 2.13-5.506-.35 1.809-2.02-1.636 2.03-3.326 3.25-.397Z" style="fill:#e1c5b5;fill-rule:nonzero" transform="matrix(1.27 0 0 1.27 -1711.36 -100.04)"/></g></g></svg>