<svg
  xmlns="http://www.w3.org/2000/svg"
  xml:space="preserve"
  width="800"
  height="800"
  style="
    fill-rule: evenodd;
    clip-rule: evenodd;
    stroke-linejoin: round;
    stroke-miterlimit: 2;
  "
  viewBox="-40 0 220 220"
>
  <path
    d="m2169.51 231.914-.95 6.753 5.74-.145-.2-7.1-4.59.492ZM2174.34 242.231l1.34 9.769h5.3l.76-2.111-1.38-8.902-6.02 1.244Z"
    style="fill: #553f37; fill-rule: nonzero"
    transform="matrix(1.27 0 0 1.27 -2694.78 -100.04)"
  />
  <path
    d="m2183.67 128.123-2.83-1.855-2.06-5.738-4.76 1.332-1.51 3.645-3.26 1.604 7.1 11.264 7.32-10.252Z"
    style="fill: #cdaa97; fill-rule: nonzero"
    transform="matrix(1.27 0 0 1.27 -2694.78 -100.04)"
  />
  <path
    d="M2178.88 124.618h-4.28l-4.62-5.831.82-11.984 7.74-1.843 5.11 2 .34 11.827-5.11 5.831Z"
    style="fill: #cdaa97; fill-rule: nonzero"
    transform="matrix(1.27 0 0 1.27 -2694.78 -100.04)"
  />
  <path
    d="m2170.49 111.467-2.82.046-.22 4.831 2.88-.146.16-4.731ZM2183.78 112.125l2.85.762-.22 4.05-2.52.096-.11-4.908Z"
    style="fill: #cdaa97; fill-rule: nonzero"
    transform="matrix(1.27 0 0 1.27 -2694.78 -100.04)"
  />
  <path
    d="m2164.85 165.592 4.66 66.322h5.4l1.21-56.366-2.8 26.002 1.08 40.744 5.92-1.266 3.1-39.237 4.03-35.694-22.6-.505Z"
    style="fill: #c1beba; fill-rule: nonzero"
    transform="matrix(1.27 0 0 1.27 -2694.78 -100.04)"
  />
  <path
    d="m2175.57 175.449-2.72 28.113 1.28 28.362-5.31-9.899-2.58-37.529 9.33-9.047Z"
    style="fill: #171818; fill-opacity: 0.25; fill-rule: nonzero"
    transform="matrix(1.27 0 0 1.27 -2694.78 -100.04)"
  />
  <path
    d="m2194.76 161.62 2.35 5.668-.45 7.854-2.66-1-.54-6.631.22 1.998-2.4.105.87-5.452 2.61-2.542ZM2158.65 161.893l-1.77 4.401.15 7.252 2.9-.377.59-6.627-.23 1.997 2.49.339-.84-5.497-3.29-1.488Z"
    style="fill: #cdaa97; fill-rule: nonzero"
    transform="matrix(1.27 0 0 1.27 -2694.78 -100.04)"
  />
  <path
    d="m2169.12 126.985-7.23 3.149-.75 8.78 4.23.831.79-5.547-1.38 31.391 22.67.507-1.89-29.196 1.07 4.477 4.65-1.632-1.77-8.246-5.84-3.503-7.87 3.933-6.68-4.944Z"
    style="fill: #494a72; fill-rule: nonzero"
    transform="matrix(1.27 0 0 1.27 -2694.78 -100.04)"
  />
  <path
    d="m2191.28 139.745-4.65 1.632 5.46 22.861 3.3-1.433-4.11-23.06Z"
    style="fill: #cdaa97; fill-rule: nonzero"
    transform="matrix(1.27 0 0 1.27 -2694.78 -100.04)"
  />
  <path
    d="m2182.43 120.783-4.55 5.217h-2.89l-3.46-5.16.8-.38 2.74 1.54h2.92l3.54-1.485.9.268Z"
    style="fill: #2a2b2a; fill-rule: nonzero"
    transform="matrix(1.27 0 0 1.27 -2694.78 -100.04)"
  />
  <path
    d="m2165.37 139.745-4.23-.831-2.71 23.807 3.61.59 3.33-23.566Z"
    style="fill: #cdaa97; fill-rule: nonzero"
    transform="matrix(1.27 0 0 1.27 -2694.78 -100.04)"
  />
</svg>