<svg
  xmlns="http://www.w3.org/2000/svg"
  xml:space="preserve"
  width="800"
  height="800"
  style="
    fill-rule: evenodd;
    clip-rule: evenodd;
    stroke-linejoin: round;
    stroke-miterlimit: 2;
  "
  viewBox="-40 0 220 220"
>
  <path
    d="m1843.49 231.021.94 6.871-8.7-.172-.51-7.384 8.27.685ZM1827.25 249.311l.77 2.189h7.28l1.35-9.981-8.03-1.266-1.37 9.058Z"
    style="fill: #ceab97; fill-rule: nonzero"
    transform="matrix(1.27 0 0 1.27 -2259.18 -100.04)"
  />
  <path
    d="m1827.32 125.405 2.83-1.889 2.06-5.839 4.76 1.357 1.51 3.709 3.26 1.632-7.1 11.462-7.32-10.432Z"
    style="fill: #72594b; fill-rule: nonzero"
    transform="matrix(1.27 0 0 1.27 -2259.18 -100.04)"
  />
  <path
    d="M1832.11 121.839h4.28l4.62-5.935-.82-12.694-8.24-1.375-5.11 2.034.16 12.035 5.11 5.935Z"
    style="fill: #ceab97; fill-rule: nonzero"
    transform="matrix(1.27 0 0 1.27 -2259.18 -100.04)"
  />
  <path
    d="m1829.46 102.05.43-1.718 13.82 1.337 1.15 9.826-4.28.258-3.35-6.827-6.22-.901-1.55-1.975Z"
    style="fill: #2a2b2a; fill-rule: nonzero"
    transform="matrix(1.27 0 0 1.27 -2259.18 -100.04)"
  />
  <path
    d="m1840.5 108.456 2.82.047.22 4.916-2.88-.15-.16-4.813Z"
    style="fill: #ceab97; fill-rule: nonzero"
    transform="matrix(1.27 0 0 1.27 -2259.18 -100.04)"
  />
  <path
    d="m1831.05 104.024-3.48 1.417-.64 6.182-5.05.644.58-8.142 7.5-3.75 1.09 3.649Z"
    style="fill: #2a2b2a; fill-rule: nonzero"
    transform="matrix(1.27 0 0 1.27 -2259.18 -100.04)"
  />
  <path
    d="m1827.21 109.125-2.85.775.22 4.122 2.52.098.11-4.995Z"
    style="fill: #ceab97; fill-rule: nonzero"
    transform="matrix(1.27 0 0 1.27 -2259.18 -100.04)"
  />
  <path
    d="m1848.15 163.531-4.66 67.489h-7.41l-1.21-57.358 2.8 26.46-1.08 41.46-7.93-1.288-3.09-39.927-4.03-36.322 26.61-.514Z"
    style="fill: #c1beba; fill-rule: nonzero"
    transform="matrix(1.27 0 0 1.27 -2259.18 -100.04)"
  />
  <path
    d="m1835.62 172.625 2.52 29.545-1.28 28.859 7.12-7.237 2.71-40.104-11.07-11.063Z"
    style="fill: #171817; fill-opacity: 0.25; fill-rule: nonzero"
    transform="matrix(1.27 0 0 1.27 -2259.18 -100.04)"
  />
  <path
    d="m1814.23 159.49-2.35 5.768.45 7.992 2.66-1.018.54-6.748-.22 2.034 2.4.107-.87-5.549-2.61-2.586ZM1854.34 159.768l1.78 4.479-.16 7.378-2.9-.381-.59-6.746.23 2.033-2.49.344.84-5.593 3.29-1.514Z"
    style="fill: #ceab97; fill-rule: nonzero"
    transform="matrix(1.27 0 0 1.27 -2259.18 -100.04)"
  />
  <path
    d="m1841.87 124.246 8.23 2.705 4.46 33.659-3.61.601-4.11-29.624 1.37 31.942-26.67.516 1.89-29.709-6.53 27.819-3.31-1.459 5.89-31.856 7.84-3.565 8.37 8.502 6.18-9.531Z"
    style="fill: #ef9b75; fill-rule: nonzero"
    transform="matrix(1.27 0 0 1.27 -2259.18 -100.04)"
  />
</svg>