<svg xmlns="http://www.w3.org/2000/svg" xml:space="preserve" width="800" height="800" style="fill-rule:evenodd;clip-rule:evenodd;stroke-linejoin:round;stroke-miterlimit:2" viewBox="-40 0 220 220"><g><g><path d="m2123.98 231.021.95 6.871-6.7-.172-.52-7.384 6.27.685Z" style="fill:#2a2b2a;fill-rule:nonzero" transform="matrix(1.27 0 0 1.27 -2619.54 -100.04)"/></g><g><path d="m2111.75 249.311.77 2.189h5.28l1.35-9.981-6.03-1.266-1.37 9.058Z" style="fill:#2a2b2a;fill-rule:nonzero" transform="matrix(1.27 0 0 1.27 -2619.54 -100.04)"/></g><g><path d="m2109.82 130.405 2.83-1.889 2.06-5.839 4.76 1.357 1.51 3.709 3.26 1.632-7.1 11.462-7.32-10.432Z" style="fill:#ceab97;fill-rule:nonzero" transform="matrix(1.27 0 0 1.27 -2619.54 -100.04)"/></g><g><path d="M2112.11 126.839h9.28l4.62-5.935-3.32-12.694-8.24-1.375-5.11 2.034-2.34 12.035 5.11 5.935Z" style="fill:#e1c5b5;fill-rule:nonzero" transform="matrix(1.27 0 0 1.27 -2619.54 -100.04)"/></g><g><path d="m2123 113.456 2.82.047.22 4.916-2.88-.15-.16-4.813Z" style="fill:#e1c5b5;fill-rule:nonzero" transform="matrix(1.27 0 0 1.27 -2619.54 -100.04)"/></g><g><path d="m2109.71 114.125-2.85.775.22 4.122 2.52.098.11-4.995Z" style="fill:#e1c5b5;fill-rule:nonzero" transform="matrix(1.27 0 0 1.27 -2619.54 -100.04)"/></g><g><path d="m2133.65 168.531-9.66 62.489h-5.42l-1.2-52.358 2.8 23.96-1.08 38.96-5.92-1.288-5.6-37.427-6.53-33.822 32.61-.514Z" style="fill:#313156;fill-rule:nonzero" transform="matrix(1.27 0 0 1.27 -2619.54 -100.04)"/></g><g><path d="m2117.92 178.563 2.72 26.107-1.28 26.359 5.31-10.07 2.58-35.691-9.33-6.705Z" style="fill:#171817;fill-opacity:.25;fill-rule:nonzero" transform="matrix(1.27 0 0 1.27 -2619.54 -100.04)"/></g><g><path d="m2092.98 164.49-2.35 5.768 1.2 7.992 2.66-1.018.54-6.748-.22 2.034 2.4.107-.87-5.549-3.36-2.586Z" style="fill:#e1c5b5;fill-rule:nonzero" transform="matrix(1.27 0 0 1.27 -2619.54 -100.04)"/></g><g><path d="m2143.09 164.768 1.77 4.479-.9 7.378-2.9-.381-.59-6.746.23 2.033-2.49.344.84-5.593 4.04-1.514Z" style="fill:#e1c5b5;fill-rule:nonzero" transform="matrix(1.27 0 0 1.27 -2619.54 -100.04)"/></g><g><path d="m2124.37 129.246 6.23 2.705 12.7 33.659-4.35.601-9.12-22.124 3.88 24.442-32.67.516 4.39-24.709-9.03 22.819-4.05-1.459 11.63-31.856 5.84-3.565 8.37 3.502 6.18-4.531Z" style="fill:#e4e2dc;fill-rule:nonzero" transform="matrix(1.27 0 0 1.27 -2619.54 -100.04)"/></g></g></svg>