<?xml version="1.0" encoding="UTF-8"?>
<svg id="a" data-name="Layer 1" xmlns="http://www.w3.org/2000/svg" viewBox="0 0 311.62 459.88">
  <rect x="135.35" y="346.71" width="40.92" height="113.17" fill="#8b5e3c"/>
  <path d="m147.08,4.96L61.67,148.48c-4.03,6.77.85,15.34,8.72,15.34h85.41V0c-3.38,0-6.76,1.65-8.72,4.96Z" fill="#39b54a"/>
  <path d="m249.95,148.48L164.53,4.96c-1.97-3.31-5.35-4.96-8.72-4.96v163.83h85.41c7.88,0,12.75-8.58,8.72-15.34Z" fill="#009444"/>
  <path d="m145.52,87.76l-100.73,169.12c-4.75,7.97,1,18.08,10.29,18.08h100.73V81.91c-3.98,0-7.97,1.95-10.29,5.85Z" fill="#39b54a"/>
  <path d="m266.83,256.88l-100.73-169.12c-2.32-3.9-6.31-5.85-10.29-5.85v193.04h100.73c9.29,0,15.04-10.11,10.29-18.08Z" fill="#009444"/>
  <path d="m141.59,187.79L2.35,382.48c-6.57,9.18,1.38,20.82,14.22,20.82h139.23v-222.24c-5.51,0-11.01,2.24-14.22,6.73Z" fill="#39b54a"/>
  <path d="m309.26,382.48l-139.23-194.69c-3.21-4.49-8.72-6.73-14.22-6.73v222.24h139.23c12.84,0,20.79-11.64,14.22-20.82Z" fill="#009444"/>
</svg>