<?xml version="1.0" encoding="UTF-8"?>
<svg id="a" data-name="Layer 1" xmlns="http://www.w3.org/2000/svg" viewBox="0 0 144.08 346.92">
  <rect x="0" y="0" width="144.08" height="250.24" rx="72.04" ry="72.04" fill="#8cc63f"/>
  <path d="m114.44,164.4l-.86-1.83c-.74-1.57-2.61-2.24-4.18-1.5l-27.36,12.9v-78.83c0-2.29-1.86-4.15-4.15-4.15h-11.71c-2.29,0-4.15,1.86-4.15,4.15v30.72l-25.21-14.27c-1.51-.86-3.43-.32-4.28,1.19l-1,1.76c-.86,1.51-.32,3.43,1.19,4.28l29.3,16.59v207.37c0,2.29,1.86,4.15,4.15,4.15h11.71c2.29,0,4.15-1.86,4.15-4.15v-159.62l30.9-14.57c1.57-.74,2.24-2.61,1.5-4.18Z" fill="#8c6239"/>
</svg>