<?xml version="1.0" encoding="UTF-8"?>
<svg id="a" data-name="Layer 1" xmlns="http://www.w3.org/2000/svg" viewBox="0 0 288.24 456.99">
  <rect x="124.26" y="87.87" width="39.71" height="369.12" fill="#c49a6c"/>
  <circle cx="144.12" cy="144.12" r="118.75" fill="#8dc63f"/>
  <circle cx="144.12" cy="144.12" r="118.75" fill="#8dc63f"/>
  <circle cx="144.12" cy="144.12" r="118.75" fill="#8dc63f"/>
  <circle cx="144.12" cy="144.12" r="118.75" fill="#8dc63f"/>
  <path d="m288.24,144.12c0-7.03-2.86-13.39-7.48-17.99,3.27-5.63,4.39-12.52,2.57-19.31s-6.23-12.2-11.88-15.44c1.7-6.29,1-13.23-2.51-19.32s-9.18-10.17-15.47-11.84c.02-6.52-2.46-13.04-7.43-18.01s-11.49-7.45-18.01-7.43c-1.67-6.3-5.75-11.96-11.84-15.47-6.09-3.52-13.03-4.22-19.32-2.51-3.24-5.65-8.65-10.06-15.44-11.88s-13.68-.7-19.31,2.57c-4.59-4.62-10.96-7.48-17.99-7.48s-13.39,2.86-17.99,7.48c-5.63-3.27-12.52-4.39-19.31-2.57s-12.2,6.23-15.44,11.88c-6.29-1.7-13.23-1-19.32,2.51-6.09,3.52-10.17,9.18-11.84,15.47-6.52-.02-13.04,2.46-18.01,7.43s-7.45,11.49-7.43,18.01c-6.3,1.67-11.96,5.75-15.47,11.84s-4.22,13.03-2.51,19.32c-5.65,3.24-10.06,8.65-11.88,15.44s-.7,13.68,2.57,19.31c-4.62,4.59-7.48,10.96-7.48,17.99s2.86,13.39,7.48,17.99c-3.27,5.63-4.39,12.52-2.57,19.31s6.23,12.2,11.88,15.44c-1.7,6.29-1,13.23,2.51,19.32,3.52,6.09,9.18,10.17,15.47,11.84-.02,6.52,2.46,13.04,7.43,18.01s11.49,7.45,18.01,7.43c1.67,6.3,5.75,11.96,11.84,15.47,6.09,3.52,13.03,4.22,19.32,2.51,3.24,5.65,8.65,10.06,15.44,11.88s13.68.7,19.31-2.57c4.59,4.62,10.96,7.48,17.99,7.48s13.39-2.86,17.99-7.48c5.63,3.27,12.52,4.39,19.31,2.57s12.2-6.23,15.44-11.88c6.29,1.7,13.23,1,19.32-2.51,6.09-3.52,10.17-9.18,11.84-15.47,6.52.02,13.04-2.46,18.01-7.43s7.45-11.49,7.43-18.01c6.3-1.67,11.96-5.75,15.47-11.84,3.52-6.09,4.22-13.03,2.51-19.32,5.65-3.24,10.06-8.65,11.88-15.44s.7-13.68-2.57-19.31c4.62-4.59,7.48-10.96,7.48-17.99Z" fill="#8dc63f"/>
</svg>