<svg xmlns="http://www.w3.org/2000/svg" data-name="Layer 1" viewBox="0 0 311.62 459.88"><path fill="#8b5e3c" d="M135.35 346.71h40.92v113.17h-40.92z"/><path fill="#39b54a" d="M147.08 4.96 61.67 148.48c-4.03 6.77.85 15.34 8.72 15.34h85.41V0c-3.38 0-6.76 1.65-8.72 4.96Z"/><path fill="#009444" d="M249.95 148.48 164.53 4.96C162.56 1.65 159.18 0 155.81 0v163.83h85.41c7.88 0 12.75-8.58 8.72-15.34Z"/><path fill="#39b54a" d="M145.52 87.76 44.79 256.88c-4.75 7.97 1 18.08 10.29 18.08h100.73V81.91c-3.98 0-7.97 1.95-10.29 5.85Z"/><path fill="#009444" d="M266.83 256.88 166.1 87.76c-2.32-3.9-6.31-5.85-10.29-5.85v193.04h100.73c9.29 0 15.04-10.11 10.29-18.08Z"/><path fill="#39b54a" d="M141.59 187.79 2.35 382.48c-6.57 9.18 1.38 20.82 14.22 20.82H155.8V181.06c-5.51 0-11.01 2.24-14.22 6.73Z"/><path fill="#009444" d="M309.26 382.48 170.03 187.79c-3.21-4.49-8.72-6.73-14.22-6.73V403.3h139.23c12.84 0 20.79-11.64 14.22-20.82Z"/></svg>