<svg xmlns="http://www.w3.org/2000/svg" data-name="Layer 1" viewBox="0 0 144.08 346.92"><rect width="144.08" height="250.24" fill="#8cc63f" rx="72.04" ry="72.04"/><path fill="#8c6239" d="m114.44 164.4-.86-1.83a3.139 3.139 0 0 0-4.18-1.5l-27.36 12.9V95.14c0-2.29-1.86-4.15-4.15-4.15H66.18c-2.29 0-4.15 1.86-4.15 4.15v30.72l-25.21-14.27a3.135 3.135 0 0 0-4.28 1.19l-1 1.76a3.135 3.135 0 0 0 1.19 4.28l29.3 16.59v207.37c0 2.29 1.86 4.15 4.15 4.15h11.71c2.29 0 4.15-1.86 4.15-4.15V183.16l30.9-14.57a3.139 3.139 0 0 0 1.5-4.18Z"/></svg>