<svg xmlns="http://www.w3.org/2000/svg" data-name="Layer 1" viewBox="0 0 288.24 456.99"><path fill="#c49a6c" d="M124.26 87.87h39.71v369.12h-39.71z"/><circle cx="144.12" cy="144.12" r="118.75" fill="#8dc63f"/><circle cx="144.12" cy="144.12" r="118.75" fill="#8dc63f"/><circle cx="144.12" cy="144.12" r="118.75" fill="#8dc63f"/><circle cx="144.12" cy="144.12" r="118.75" fill="#8dc63f"/><path fill="#8dc63f" d="M288.24 144.12c0-7.03-2.86-13.39-7.48-17.99 3.27-5.63 4.39-12.52 2.57-19.31s-6.23-12.2-11.88-15.44c1.7-6.29 1-13.23-2.51-19.32s-9.18-10.17-15.47-11.84c.02-6.52-2.46-13.04-7.43-18.01s-11.49-7.45-18.01-7.43c-1.67-6.3-5.75-11.96-11.84-15.47-6.09-3.52-13.03-4.22-19.32-2.51-3.24-5.65-8.65-10.06-15.44-11.88s-13.68-.7-19.31 2.57C157.53 2.87 151.16.01 144.13.01s-13.39 2.86-17.99 7.48c-5.63-3.27-12.52-4.39-19.31-2.57s-12.2 6.23-15.44 11.88c-6.29-1.7-13.23-1-19.32 2.51a25.324 25.324 0 0 0-11.84 15.47c-6.52-.02-13.04 2.46-18.01 7.43s-7.45 11.49-7.43 18.01c-6.3 1.67-11.96 5.75-15.47 11.84s-4.22 13.03-2.51 19.32c-5.65 3.24-10.06 8.65-11.88 15.44s-.7 13.68 2.57 19.31C2.88 130.72.02 137.09.02 144.12s2.86 13.39 7.48 17.99c-3.27 5.63-4.39 12.52-2.57 19.31s6.23 12.2 11.88 15.44c-1.7 6.29-1 13.23 2.51 19.32a25.324 25.324 0 0 0 15.47 11.84c-.02 6.52 2.46 13.04 7.43 18.01s11.49 7.45 18.01 7.43c1.67 6.3 5.75 11.96 11.84 15.47 6.09 3.52 13.03 4.22 19.32 2.51 3.24 5.65 8.65 10.06 15.44 11.88s13.68.7 19.31-2.57c4.59 4.62 10.96 7.48 17.99 7.48s13.39-2.86 17.99-7.48c5.63 3.27 12.52 4.39 19.31 2.57s12.2-6.23 15.44-11.88c6.29 1.7 13.23 1 19.32-2.51a25.324 25.324 0 0 0 11.84-15.47c6.52.02 13.04-2.46 18.01-7.43s7.45-11.49 7.43-18.01c6.3-1.67 11.96-5.75 15.47-11.84 3.52-6.09 4.22-13.03 2.51-19.32 5.65-3.24 10.06-8.65 11.88-15.44s.7-13.68-2.57-19.31a25.288 25.288 0 0 0 7.48-17.99Z"/></svg>